{"title":"Iron Man 2 1080p BluRay Dual Audio By Ashish7(wall.e)","uid":7481962,"size":4992476023,"categoryP":"video","categoryS":"hd___movies","magnet":"?xt=urn:btih:bdcf8c43e8bda68602631340e40e81d3636048e3&amp;dn=Iron+Man+2+1080p+BluRay+Dual+Audio+By+Ashish7%28wall.e%29&amp;tr=udp%3A%2F%2Ftracker.openbittorrent.com%3A80&amp;tr=udp%3A%2F%2Fopen.demonii.com%3A1337&amp;tr=udp%3A%2F%2Ftracker.coppersurfer.tk%3A6969&amp;tr=udp%3A%2F%2Fexodus.desync.com%3A6969","seeders":0,"leechers":1,"uploader":"wall.e","files":15,"time":1343460833,"description":"Format                           : Matroska\nFile size                        : 4.60 GiB\nDuration                         : 2h 4mn\nOverall bit rate                 : 5 270 Kbps\n\nVideo\nID                               : 1\nFormat                           : AVC\nFormat/Info                      : Advanced Video Codec\nBit rate                         : 4184 Kbps\nMaximum bit rate                 : 18.0 Mbps\nWidth                            : 1920 pixels\nHeight                           : 1080 pixels\nDisplay aspect ratio             : 16:9\nFrame rate                       : 23.976 fps\nColor space                      : YUV\nChroma subsampling               : 4:2:0\nStream size                      : 3.56 GiB (77%)\nTitle                            : 1080p BluRay By Ashish7(wall.e)\n\nAudio #1\nID                               : 2\nFormat                           : AC-3\nFormat/Info                      : Audio Coding 3\nBit rate                         : 640 Kbps\nChannel(s)                       : 6 channels\nChannel positions                : Front: L C R, Side: L R, LFE\nSampling rate                    : 48.0 KHz\nBit depth                        : 16 bits\nStream size                      : 572 MiB (12%)\nTitle                            : 5.1 Hindi Audio By Ashish7(wall.e)\n\nAudio #2\nID                               : 3\nFormat                           : AC-3\nFormat/Info                      : Audio Coding 3\nBit rate                         : 448 Kbps\nChannel(s)                       : 6 channels\nChannel positions                : Front: L C R, Side: L R, LFE\nSampling rate                    : 48.0 KHz\nStream size                      : 400 MiB (9%)\nTitle                            : 5.1 English Audio By Ashish7(wall.e)\n\nText\nID                               : 4\nFormat                           : UTF-8\nCodec ID                         : S_TEXT/UTF8\nCodec ID/Info                    : UTF-8 Plain Text\nTitle                            : English Subtitles By Ashish7(wall.e)","torrent":{"xt":"urn:btih:bdcf8c43e8bda68602631340e40e81d3636048e3","amp;dn":"Iron+Man+2+1080p+BluRay+Dual+Audio+By+Ashish7%28wall.e%29","amp;tr":["udp%3A%2F%2Ftracker.openbittorrent.com%3A80","udp%3A%2F%2Fopen.demonii.com%3A1337","udp%3A%2F%2Ftracker.coppersurfer.tk%3A6969","udp%3A%2F%2Fexodus.desync.com%3A6969"],"infoHash":"bdcf8c43e8bda68602631340e40e81d3636048e3","infoHashBuffer":{"type":"Buffer","data":[189,207,140,67,232,189,166,134,2,99,19,64,228,14,129,211,99,96,72,227]},"announce":[],"urlList":[]}}